<svg width="520" height="419" viewBox="0 0 520 419" fill="none" xmlns="http://www.w3.org/2000/svg">
<g clip-path="url(#clip0_2_13)">
<path d="M188.886 317.621C187.314 313.848 187.141 309.637 188.399 305.747C189.656 301.858 192.261 298.547 195.742 296.413C196.901 295.707 195.841 293.878 194.676 294.587C190.683 296.976 187.703 300.748 186.3 305.19C184.897 309.631 185.168 314.434 187.063 318.689C187.595 319.936 189.414 318.86 188.886 317.621Z" fill="#625BB4"/>
<path d="M189.49 320.466C186.642 315.412 187.313 309.365 188.337 303.901C189.406 298.196 190.808 292.404 189.595 286.602C189.045 283.786 187.743 281.171 185.828 279.036C184.905 278.032 183.415 279.531 184.335 280.531C187.916 284.427 188.331 290.079 187.75 295.099C187.065 301.019 185.124 306.788 185.365 312.805C185.428 315.856 186.217 318.848 187.667 321.533C187.813 321.765 188.044 321.931 188.31 321.996C188.576 322.061 188.857 322.02 189.093 321.882C189.33 321.743 189.504 321.518 189.578 321.254C189.652 320.99 189.62 320.707 189.49 320.466Z" fill="#625BB4"/>
<path d="M204.77 336.602H168.883C168.043 336.601 167.238 336.267 166.645 335.672C166.051 335.078 165.717 334.271 165.716 333.43V322.87C165.719 320.156 166.797 317.555 168.712 315.636C170.628 313.717 173.225 312.638 175.933 312.635H181.197C181.477 312.635 181.745 312.523 181.943 312.325C182.141 312.127 182.252 311.858 182.253 311.577V306.643C182.253 306.176 182.439 305.728 182.769 305.397C183.098 305.067 183.545 304.881 184.012 304.881H189.641C190.108 304.881 190.555 305.067 190.885 305.397C191.214 305.728 191.4 306.176 191.4 306.643V311.577C191.401 311.858 191.512 312.127 191.71 312.325C191.908 312.523 192.176 312.635 192.456 312.635H197.72C200.428 312.638 203.025 313.717 204.941 315.636C206.856 317.555 207.934 320.156 207.937 322.87V333.43C207.936 334.271 207.602 335.078 207.008 335.672C206.415 336.267 205.61 336.601 204.77 336.602Z" fill="#CCCCCC"/>
<path d="M187.379 273.187C188.135 277.204 187.199 280.753 185.289 281.113C183.379 281.474 181.219 278.509 180.463 274.492C179.707 270.475 182.031 263.795 182.031 263.795C182.031 263.795 186.623 269.17 187.379 273.187Z" fill="#6C63FF"/>
<path d="M201.869 291.876C199.477 295.188 196.261 296.947 194.687 295.805C193.113 294.664 193.776 291.054 196.169 287.743C198.562 284.431 205.002 281.53 205.002 281.53C205.002 281.53 204.262 288.565 201.869 291.876Z" fill="#6C63FF"/>
<path d="M122.74 63.8478C121.168 60.0748 120.996 55.8632 122.253 51.9738C123.51 48.0844 126.115 44.7738 129.596 42.64C130.755 41.9339 129.696 40.1043 128.531 40.8139C124.538 43.2023 121.558 46.9744 120.155 51.416C118.751 55.8576 119.023 60.6605 120.917 64.9152C121.45 66.1627 123.269 65.0866 122.74 63.8478Z" fill="#625BB4"/>
<path d="M123.344 66.6921C120.497 61.6389 121.167 55.5916 122.191 50.1271C123.26 44.4226 124.662 38.6307 123.449 32.8289C122.899 30.012 121.597 27.3972 119.682 25.2624C118.76 24.259 117.27 25.7575 118.189 26.7578C121.77 30.6539 122.186 36.3059 121.605 41.3254C120.92 47.2458 118.978 53.0149 119.219 59.031C119.282 62.0826 120.071 65.075 121.521 67.7595C121.668 67.9915 121.898 68.1575 122.164 68.2226C122.43 68.2876 122.711 68.2466 122.948 68.1081C123.184 67.9696 123.358 67.7446 123.432 67.4804C123.506 67.2162 123.474 66.9335 123.344 66.6921Z" fill="#625BB4"/>
<path d="M138.625 82.8289H102.737C101.897 82.8279 101.093 82.4934 100.499 81.8987C99.9053 81.304 99.5714 80.4977 99.5704 79.6567V69.0966C99.5735 66.383 100.651 63.7814 102.566 61.8626C104.482 59.9438 107.079 58.8645 109.788 58.8614H115.051C115.331 58.8611 115.599 58.7496 115.797 58.5513C115.995 58.3531 116.107 58.0843 116.107 57.804V52.8695C116.107 52.4023 116.293 51.9543 116.623 51.6239C116.953 51.2936 117.4 51.1077 117.866 51.1072H123.495C123.962 51.1077 124.409 51.2936 124.739 51.6239C125.069 51.9543 125.254 52.4023 125.255 52.8695V57.804C125.255 58.0843 125.366 58.3531 125.564 58.5513C125.762 58.7496 126.03 58.8611 126.31 58.8614H131.574C134.283 58.8645 136.88 59.9438 138.795 61.8626C140.711 63.7814 141.788 66.383 141.791 69.0966V79.6567C141.79 80.4977 141.456 81.304 140.863 81.8987C140.269 82.4934 139.464 82.8279 138.625 82.8289Z" fill="#CCCCCC"/>
<path d="M121.233 19.4134C121.989 23.4305 121.053 26.9793 119.143 27.3397C117.234 27.7002 115.073 24.7358 114.317 20.7186C113.562 16.7015 115.886 10.0213 115.886 10.0213C115.886 10.0213 120.477 15.3962 121.233 19.4134Z" fill="#6C63FF"/>
<path d="M135.724 38.1027C133.331 41.414 130.115 43.173 128.541 42.0316C126.967 40.8901 127.631 37.2804 130.024 33.9691C132.416 30.6578 138.857 27.7562 138.857 27.7562C138.857 27.7562 138.116 34.7913 135.724 38.1027Z" fill="#6C63FF"/>
<path d="M51.3685 191.74H22.5177V202.314H51.3685V191.74Z" fill="#6C63FF"/>
<path d="M51.3685 226.281H22.5177V236.855H51.3685V226.281Z" fill="#6C63FF"/>
<path d="M227.288 418.021H11.9625C8.79096 418.018 5.75031 416.754 3.50767 414.508C1.26504 412.261 0.0035555 409.215 0 406.038V11.9837C0.0035555 8.80655 1.26504 5.76051 3.50767 3.5139C5.75031 1.26728 8.79096 0.00356181 11.9625 0H227.288C230.46 0.0035767 233.5 1.26729 235.743 3.51391C237.985 5.76052 239.247 8.80656 239.25 11.9837V406.038C239.247 409.215 237.985 412.261 235.743 414.507C233.5 416.754 230.46 418.018 227.288 418.021ZM11.9625 1.40985C9.16409 1.41302 6.48119 2.52807 4.5024 4.51037C2.5236 6.49268 1.41052 9.18035 1.40736 11.9837V406.038C1.41052 408.841 2.5236 411.529 4.5024 413.511C6.48119 415.493 9.16409 416.608 11.9625 416.612H227.288C230.086 416.608 232.769 415.493 234.748 413.511C236.727 411.529 237.84 408.841 237.843 406.038V11.9837C237.84 9.18035 236.727 6.49268 234.748 4.51037C232.769 2.52807 230.086 1.41302 227.288 1.40985H11.9625Z" fill="#625BB4"/>
<path d="M238.547 81.3856H0.703735V82.7955H238.547V81.3856Z" fill="#625BB4"/>
<path d="M238.547 165.999H0.703735V167.409H238.547V165.999Z" fill="#625BB4"/>
<path d="M238.547 250.612H0.703735V252.022H238.547V250.612Z" fill="#625BB4"/>
<path d="M238.547 335.226H0.703735V336.636H238.547V335.226Z" fill="#625BB4"/>
<path d="M49.2575 252.364H25.3324C24.3996 252.363 23.5053 251.991 22.8457 251.33C22.1861 250.669 21.8151 249.773 21.814 248.839V180.461C21.8151 179.527 22.1861 178.631 22.8457 177.97C23.5053 177.309 24.3996 176.938 25.3324 176.937H49.2575C50.1903 176.938 51.0846 177.309 51.7442 177.97C52.4037 178.631 52.7748 179.527 52.7759 180.461V248.839C52.7748 249.773 52.4037 250.669 51.7442 251.33C51.0846 251.991 50.1903 252.363 49.2575 252.364ZM25.3324 178.346C24.7727 178.347 24.2361 178.57 23.8404 178.966C23.4446 179.363 23.222 179.9 23.2214 180.461V248.839C23.222 249.4 23.4446 249.937 23.8404 250.334C24.2361 250.73 24.7727 250.953 25.3324 250.954H49.2575C49.8172 250.953 50.3537 250.73 50.7495 250.334C51.1453 249.937 51.3679 249.4 51.3685 248.839V180.461C51.3679 179.9 51.1453 179.363 50.7495 178.966C50.3537 178.57 49.8172 178.347 49.2575 178.346H25.3324Z" fill="#625BB4"/>
<path d="M95.7002 191.74H66.8494V202.314H95.7002V191.74Z" fill="#6C63FF"/>
<path d="M95.7002 226.281H66.8494V236.855H95.7002V226.281Z" fill="#6C63FF"/>
<path d="M93.5891 252.364H69.6641C68.7313 252.363 67.837 251.991 67.1774 251.33C66.5178 250.669 66.1468 249.773 66.1457 248.839V180.461C66.1468 179.527 66.5178 178.631 67.1774 177.97C67.837 177.309 68.7313 176.938 69.6641 176.937H93.5891C94.5219 176.938 95.4162 177.309 96.0758 177.97C96.7354 178.631 97.1064 179.527 97.1075 180.461V248.839C97.1064 249.773 96.7354 250.669 96.0758 251.33C95.4162 251.991 94.5219 252.363 93.5891 252.364ZM69.6641 178.346C69.1044 178.347 68.5678 178.57 68.1721 178.966C67.7763 179.363 67.5537 179.9 67.553 180.461V248.839C67.5537 249.4 67.7763 249.937 68.1721 250.334C68.5678 250.73 69.1044 250.953 69.6641 250.954H93.5891C94.1488 250.953 94.6854 250.73 95.0812 250.334C95.4769 249.937 95.6995 249.4 95.7002 248.839V180.461C95.6995 179.9 95.4769 179.363 95.0812 178.966C94.6854 178.57 94.1488 178.347 93.5891 178.346H69.6641Z" fill="#625BB4"/>
<path d="M166.068 106.444H137.217V117.018H166.068V106.444Z" fill="#6C63FF"/>
<path d="M166.068 140.985H137.217V151.559H166.068V140.985Z" fill="#6C63FF"/>
<path d="M163.957 167.068H140.032C139.099 167.066 138.205 166.695 137.545 166.034C136.886 165.373 136.515 164.477 136.513 163.543V95.1651C136.515 94.2306 136.886 93.3347 137.545 92.674C138.205 92.0132 139.099 91.6415 140.032 91.6404H163.957C164.89 91.6415 165.784 92.0132 166.444 92.674C167.103 93.3347 167.474 94.2306 167.475 95.1651V163.543C167.474 164.477 167.103 165.373 166.444 166.034C165.784 166.695 164.89 167.066 163.957 167.068ZM140.032 93.0503C139.472 93.0509 138.936 93.2739 138.54 93.6704C138.144 94.0669 137.921 94.6044 137.921 95.1651V163.543C137.921 164.104 138.144 164.641 138.54 165.038C138.936 165.434 139.472 165.657 140.032 165.658H163.957C164.517 165.657 165.053 165.434 165.449 165.038C165.845 164.641 166.067 164.104 166.068 163.543V95.1651C166.067 94.6044 165.845 94.0668 165.449 93.6704C165.053 93.2739 164.517 93.0509 163.957 93.0503H140.032Z" fill="#625BB4"/>
<path d="M210.4 106.444H181.549V117.018H210.4V106.444Z" fill="#6C63FF"/>
<path d="M210.4 140.985H181.549V151.559H210.4V140.985Z" fill="#6C63FF"/>
<path d="M208.289 167.068H184.364C183.431 167.066 182.537 166.695 181.877 166.034C181.217 165.373 180.846 164.477 180.845 163.543V95.1651C180.846 94.2306 181.217 93.3347 181.877 92.674C182.537 92.0132 183.431 91.6415 184.364 91.6404H208.289C209.221 91.6415 210.116 92.0132 210.775 92.674C211.435 93.3347 211.806 94.2306 211.807 95.1651V163.543C211.806 164.477 211.435 165.373 210.775 166.034C210.116 166.695 209.221 167.066 208.289 167.068ZM184.364 93.0503C183.804 93.0509 183.267 93.2739 182.872 93.6704C182.476 94.0668 182.253 94.6044 182.253 95.1651V163.543C182.253 164.104 182.476 164.641 182.872 165.038C183.267 165.434 183.804 165.657 184.364 165.658H208.289C208.848 165.657 209.385 165.434 209.781 165.038C210.176 164.641 210.399 164.104 210.4 163.543V95.1651C210.399 94.6044 210.176 94.0668 209.781 93.6704C209.385 93.2739 208.848 93.0509 208.289 93.0503H184.364Z" fill="#625BB4"/>
<path d="M131.088 185.425L104.081 195.592L107.794 205.49L134.801 195.323L131.088 185.425Z" fill="#6C63FF"/>
<path d="M143.217 217.759L116.21 227.926L119.922 237.824L146.929 227.657L143.217 217.759Z" fill="#6C63FF"/>
<path d="M126.763 251.576C126.048 251.575 125.35 251.355 124.762 250.947C124.174 250.538 123.724 249.96 123.472 249.289L99.4619 185.281C99.1349 184.406 99.1677 183.437 99.5531 182.586C99.9385 181.735 100.645 181.072 101.518 180.742L123.914 172.312C124.346 172.149 124.807 172.073 125.269 172.088C125.73 172.104 126.185 172.21 126.605 172.401C127.026 172.593 127.405 172.865 127.721 173.203C128.037 173.541 128.283 173.938 128.445 174.372L152.455 238.379C152.782 239.254 152.749 240.224 152.364 241.075C151.978 241.926 151.272 242.589 150.399 242.918L128.003 251.349C127.607 251.499 127.187 251.576 126.763 251.576ZM125.153 173.495C124.899 173.496 124.647 173.542 124.409 173.631L102.013 182.062C101.489 182.26 101.065 182.658 100.834 183.168C100.603 183.679 100.583 184.261 100.779 184.786L124.789 248.794C124.887 249.054 125.034 249.292 125.224 249.495C125.413 249.697 125.64 249.861 125.893 249.976C126.145 250.09 126.418 250.154 126.695 250.163C126.972 250.173 127.248 250.127 127.508 250.029L149.904 241.599C150.427 241.401 150.851 241.003 151.083 240.492C151.314 239.982 151.334 239.4 151.137 238.875L127.128 174.867C126.976 174.465 126.706 174.118 126.354 173.873C126.001 173.628 125.582 173.496 125.153 173.495Z" fill="#625BB4"/>
<path d="M33.9805 101.539L6.97345 111.705L10.6863 121.603L37.6933 111.437L33.9805 101.539Z" fill="#6C63FF"/>
<path d="M46.1091 133.873L19.1021 144.039L22.8149 153.937L49.8219 143.771L46.1091 133.873Z" fill="#6C63FF"/>
<path d="M29.6557 167.69C28.9402 167.688 28.2421 167.469 27.6541 167.06C27.0661 166.652 26.6162 166.074 26.364 165.403L2.35438 101.395C2.02737 100.52 2.06016 99.5508 2.44555 98.6998C2.83094 97.8489 3.53747 97.1859 4.41019 96.8561L26.8064 88.4256C27.2389 88.2627 27.6992 88.1867 28.1611 88.2021C28.6229 88.2175 29.0771 88.3238 29.4979 88.5151C29.9187 88.7064 30.2977 88.9788 30.6134 89.3168C30.929 89.6549 31.1751 90.0519 31.3375 90.4853L55.3472 154.493C55.6742 155.368 55.6414 156.338 55.256 157.188C54.8707 158.039 54.1641 158.702 53.2914 159.032L30.8952 167.463C30.4991 167.613 30.0792 167.69 29.6557 167.69ZM28.0452 89.6089C27.7912 89.6093 27.5392 89.6554 27.3015 89.7453L4.90539 98.1758C4.38171 98.3737 3.95774 98.7716 3.72649 99.2822C3.49524 99.7927 3.47557 100.374 3.67181 100.899L27.6815 164.907C27.779 165.167 27.9266 165.406 28.116 165.608C28.3054 165.811 28.5328 165.975 28.7853 166.089C29.0378 166.204 29.3103 166.268 29.5874 166.277C29.8645 166.286 30.1406 166.241 30.4001 166.143L52.7962 157.712C53.3199 157.515 53.7439 157.117 53.9751 156.606C54.2064 156.096 54.226 155.514 54.0298 154.989L30.0201 90.9809C29.8688 90.5785 29.5989 90.2317 29.2461 89.9866C28.8934 89.7416 28.4745 89.6098 28.0452 89.6089Z" fill="#625BB4"/>
<path d="M441.206 176.232C453.254 176.232 463.02 166.448 463.02 154.379C463.02 142.31 453.254 132.526 441.206 132.526C429.158 132.526 419.392 142.31 419.392 154.379C419.392 166.448 429.158 176.232 441.206 176.232Z" fill="#2F2E41"/>
<path d="M344.296 254.106C345.326 254.506 346.432 254.674 347.534 254.6C348.637 254.525 349.71 254.21 350.678 253.675C351.645 253.14 352.484 252.4 353.135 251.505C353.786 250.61 354.233 249.584 354.446 248.497L414.425 210.587L403.508 198.274L347.957 239.436C346.112 239.2 344.244 239.65 342.707 240.702C341.171 241.754 340.073 243.333 339.622 245.141C339.171 246.95 339.397 248.861 340.259 250.513C341.12 252.165 342.556 253.443 344.296 254.106Z" fill="#FFB8B8"/>
<path d="M401.903 220.666C401.372 220.667 400.849 220.534 400.383 220.28C399.917 220.026 399.521 219.658 399.234 219.211L392.288 208.399C391.85 207.716 391.689 206.891 391.84 206.094C391.99 205.296 392.439 204.587 393.096 204.111L416.338 187.283C417.466 186.466 418.746 185.884 420.102 185.572C421.458 185.259 422.863 185.222 424.234 185.463C425.605 185.704 426.913 186.218 428.082 186.975C429.251 187.731 430.256 188.715 431.039 189.868C431.822 191.02 432.366 192.319 432.639 193.685C432.912 195.052 432.909 196.46 432.629 197.826C432.35 199.192 431.799 200.487 431.011 201.636C430.223 202.785 429.213 203.764 428.04 204.515L403.602 220.168C403.095 220.494 402.505 220.667 401.903 220.666Z" fill="#2F2E41"/>
<path d="M412.281 409.456L403.654 409.456L399.55 376.121L412.283 376.122L412.281 409.456Z" fill="#FFB8B8"/>
<path d="M397.492 406.987H414.129V417.481H387.016C387.016 416.103 387.287 414.738 387.814 413.465C388.34 412.192 389.112 411.035 390.084 410.06C391.057 409.086 392.212 408.313 393.483 407.785C394.754 407.258 396.116 406.987 397.492 406.987Z" fill="#2F2E41"/>
<path d="M452.555 402.995L444.249 405.331L431.302 374.349L443.561 370.901L452.555 402.995Z" fill="#FFB8B8"/>
<path d="M437.65 404.622L453.668 400.117L456.5 410.221L430.396 417.562C430.024 416.235 429.916 414.848 430.08 413.479C430.243 412.111 430.674 410.788 431.348 409.587C432.021 408.385 432.925 407.328 434.006 406.476C435.087 405.625 436.326 404.994 437.65 404.622Z" fill="#2F2E41"/>
<path d="M475.799 351.838L442.307 312.242L462.63 287.538C462.928 287.176 463.302 286.885 463.726 286.685C464.151 286.485 464.614 286.383 465.082 286.384C465.551 286.385 466.013 286.491 466.436 286.693C466.859 286.895 467.232 287.189 467.528 287.553L498.28 325.361L475.799 351.838Z" fill="#6C63FF"/>
<path d="M443.658 312.537C444.152 311.646 444.764 310.827 445.478 310.102L464.876 290.401C465.636 289.625 466.66 289.165 467.744 289.111C469.961 289.006 473.596 289.231 474.609 291.667L448.42 313.133L443.658 312.537Z" fill="#F2F2F2"/>
<path d="M476.963 360.217C475.469 360.172 474.017 359.712 472.77 358.887L472.678 358.791L442.003 311.794L447.093 311.301L474.372 289.986C474.717 289.717 475.113 289.522 475.536 289.414C475.959 289.305 476.4 289.286 476.831 289.356C477.263 289.427 477.674 289.586 478.041 289.824C478.408 290.062 478.721 290.373 478.962 290.738L508.781 335.95C509.239 336.649 509.404 337.499 509.241 338.318C509.078 339.138 508.6 339.86 507.91 340.329L479.055 359.82C478.389 360.085 477.679 360.22 476.963 360.217Z" fill="#6C63FF"/>
<path d="M466.114 328.068C465.825 328.069 465.541 327.998 465.286 327.863C465.031 327.727 464.813 327.531 464.652 327.291L461.128 322.047C460.868 321.659 460.772 321.184 460.862 320.725C460.951 320.267 461.218 319.862 461.605 319.601L479.683 307.408C480.071 307.148 480.545 307.053 481.003 307.142C481.46 307.232 481.864 307.499 482.125 307.886L485.649 313.13C485.909 313.518 486.005 313.993 485.915 314.452C485.826 314.911 485.559 315.315 485.172 315.576L467.094 327.769C466.804 327.964 466.463 328.068 466.114 328.068Z" fill="#625BB4"/>
<path d="M398.185 404.415C397.223 404.412 396.296 404.048 395.588 403.395C394.88 402.742 394.441 401.848 394.358 400.888C392.822 383.416 385.121 295.36 384.275 277.577C383.336 257.819 399.751 226.561 399.917 226.248L400.031 226.033L408.144 227.048V227.993L415.866 228.903L430.811 230.353L435.09 282.742L436.982 318.272L454.756 390.839C454.957 391.643 454.835 392.493 454.416 393.208C453.996 393.922 453.313 394.442 452.514 394.656L437.045 398.882C436.24 399.098 435.384 398.989 434.658 398.579C433.933 398.17 433.397 397.491 433.166 396.69L418.601 345.437C418.531 345.189 418.372 344.975 418.156 344.836C417.939 344.697 417.679 344.642 417.424 344.682C417.17 344.721 416.939 344.852 416.774 345.051C416.61 345.249 416.523 345.501 416.531 345.759L418.072 395.735C418.08 396.248 417.983 396.757 417.787 397.232C417.591 397.706 417.301 398.135 416.934 398.493C413.388 401.829 404.019 403.61 398.75 404.374C398.563 404.402 398.374 404.415 398.185 404.415Z" fill="#2F2E41"/>
<path d="M444.667 184.262C442.212 181.699 426.038 185.222 422.448 188.998L397.864 229.254L438.521 236.832L447.504 185.683L444.667 184.262Z" fill="#6C63FF"/>
<path d="M434.011 286.538C433.135 286.539 432.265 286.393 431.437 286.109C429.075 285.297 426.18 284.447 422.833 283.586C408.172 279.809 402.996 267.718 407.449 247.648L407.561 247.139C411.742 228.101 419.622 210.073 430.752 194.084L432.476 191.603C434.557 188.61 437.471 186.295 440.854 184.947C444.238 183.599 447.942 183.277 451.507 184.021C458.103 185.384 461.645 187.359 462.034 189.892C462.797 194.861 448.063 254.935 441.693 280.532C441.266 282.249 440.278 283.774 438.885 284.862C437.493 285.95 435.777 286.541 434.011 286.538Z" fill="#2F2E41"/>
<path d="M383.507 278.826C383.124 278.826 382.743 278.766 382.378 278.65L377.626 277.127C377.135 276.969 376.682 276.711 376.296 276.368C375.91 276.025 375.6 275.605 375.385 275.135C375.171 274.665 375.056 274.156 375.05 273.639C375.043 273.122 375.144 272.61 375.346 272.135L400.559 212.848C405.39 201.538 413.837 192.158 424.571 186.182C424.727 186.097 424.899 186.044 425.076 186.027C425.253 186.011 425.431 186.031 425.6 186.086C425.755 186.136 425.898 186.217 426.02 186.325C426.142 186.434 426.239 186.566 426.307 186.715C429.272 193.25 413.132 224.177 400.164 249.027C393.523 261.751 387.788 272.741 387.135 275.875C386.961 276.709 386.505 277.458 385.844 277.996C385.184 278.533 384.358 278.827 383.507 278.826Z" fill="#2F2E41"/>
<path d="M461.513 292.335C462.399 291.673 463.129 290.825 463.652 289.849C464.175 288.874 464.478 287.796 464.539 286.69C464.601 285.585 464.42 284.479 464.01 283.452C463.599 282.424 462.968 281.499 462.162 280.742L461.961 209.696L445.749 212.421L451.051 281.435C449.871 282.876 449.26 284.701 449.334 286.563C449.407 288.426 450.16 290.197 451.449 291.54C452.739 292.884 454.476 293.707 456.331 293.854C458.185 294 460.029 293.46 461.513 292.335Z" fill="#FFB8B8"/>
<path d="M448.313 227.322C447.509 227.322 446.736 227.016 446.149 226.466C445.563 225.916 445.207 225.163 445.154 224.359L443.268 195.693C443.09 192.935 444.011 190.218 445.829 188.139C447.648 186.061 450.215 184.789 452.968 184.604C454.381 184.511 455.799 184.708 457.134 185.182C458.469 185.657 459.693 186.4 460.731 187.365C461.769 188.33 462.6 189.498 463.172 190.796C463.744 192.094 464.046 193.495 464.059 194.914L464.315 223.971C464.321 224.81 463.995 225.618 463.409 226.218C462.822 226.817 462.023 227.16 461.186 227.172L448.351 227.322L448.313 227.322Z" fill="#2F2E41"/>
<path d="M436.712 177.343C446.258 177.343 453.995 169.591 453.995 160.029C453.995 150.467 446.258 142.716 436.712 142.716C427.167 142.716 419.429 150.467 419.429 160.029C419.429 169.591 427.167 177.343 436.712 177.343Z" fill="#FFB8B8"/>
<path d="M451.083 172.144C452.372 168.035 453.555 163.19 451.004 159.722C449.166 157.223 445.866 156.256 442.771 156.118C439.675 155.979 436.571 156.505 433.483 156.259C430.394 156.013 427.13 154.792 425.561 152.115C423.527 148.645 425.25 143.865 428.52 141.527C431.791 139.19 436.112 138.864 440.092 139.408C445.13 140.007 449.865 142.129 453.668 145.492C457.368 148.913 459.78 153.844 459.672 158.887C459.565 163.929 456.742 168.951 452.242 171.216" fill="#2F2E41"/>
<path d="M446.773 134.312C442.636 133.036 440.727 127.556 442.578 123.635C444.428 119.714 449.158 117.661 453.452 118.207C457.747 118.753 461.532 121.513 464.142 124.973C466.752 128.433 468.327 132.558 469.639 136.691C470.951 140.824 472.043 145.046 473.835 148.994C476.68 155.059 481.067 160.268 486.558 164.097C492.048 167.926 498.448 170.239 505.114 170.806C508.019 171.017 511.034 170.866 513.682 169.649C516.33 168.432 518.551 165.98 518.848 163.076C520.355 173.389 514.366 184.348 504.882 188.634C495.398 192.919 483.234 190.162 476.515 182.205C469.949 174.429 468.932 163.45 469.09 153.266C469.133 150.473 469.236 147.628 468.466 144.944C467.695 142.26 465.873 139.707 463.218 138.855C461.076 138.167 458.756 138.663 456.56 139.15C454.364 139.638 452.032 140.107 449.905 139.372C447.779 138.637 446.067 136.215 446.924 134.131" fill="#2F2E41"/>
<path d="M515.15 418.726H329.379C329.193 418.726 329.014 418.652 328.882 418.52C328.75 418.388 328.676 418.208 328.676 418.021C328.676 417.834 328.75 417.655 328.882 417.523C329.014 417.391 329.193 417.316 329.379 417.316H515.15C515.337 417.316 515.516 417.391 515.648 417.523C515.78 417.655 515.854 417.834 515.854 418.021C515.854 418.208 515.78 418.388 515.648 418.52C515.516 418.652 515.337 418.726 515.15 418.726Z" fill="#CCCCCC"/>
</g>
<defs>
<clipPath id="clip0_2_13">
<rect width="519.079" height="418.726" fill="white"/>
</clipPath>
</defs>
</svg>
