<svg width="48" height="48" viewBox="0 0 48 48" fill="none" xmlns="http://www.w3.org/2000/svg">
<path d="M12 10.5L15 12V43.5H12V10.5Z" fill="#6C63FF"/>
<path d="M37.5 15H19.5V45H37.5V15Z" fill="#6C63FF"/>
<path d="M28.5 8.25C28.5 8.67 28.17 9 27.75 9H18.75C18.33 9 18 8.67 18 8.25C18 7.83 18.33 7.5 18.75 7.5H27.75C28.17 7.5 28.5 7.83 28.5 8.25Z" fill="#2D2220"/>
<path d="M37.5 4.5H38.25C38.67 4.5 39 4.17 39 3.75C39 3.33 38.67 3 38.25 3H13.5C11.01 3 9 5.01 9 7.5C9 7.5 9 36.99 9 40.5C9 42.99 11.01 45 13.5 45H37.5C39 45 39 43.5 39 43.5V10.5H37.5V4.5ZM15.75 6H10.905C11.43 5.1 12.39 4.5 13.5 4.5H35.25C35.73 4.5 36 4.5 36 4.5V6H30.75C30.33 6 30 6.33 30 6.75C30 7.17 30.33 7.5 30.75 7.5H36V10.5C36 10.5 21.54 10.5 15.75 10.5H13.5C11.85 10.5 10.5 9.15 10.5 7.5H15.75C16.17 7.5 16.5 7.17 16.5 6.75C16.5 6.33 16.17 6 15.75 6ZM37.5 42C37.5 43.5 36 43.5 36 43.5H16.5V39.75C16.5 39.33 16.17 39 15.75 39C15.33 39 15 39.33 15 39.75V43.5H13.5C11.85 43.5 10.5 42.15 10.5 40.5V10.83C11.295 11.55 12.345 12 13.5 12H15V35.25C15 35.67 15.33 36 15.75 36C16.17 36 16.5 35.67 16.5 35.25V12H37.5V42Z" fill="#2D2220"/>
</svg>
